PathFileType	4	(X/Y/Z)	Patient4_TMGait_0pt7_01_right_08.trc.trc
DataRate	CameraRate	NumFrames	NumMarkers	Units	OrigDataRate	OrigDataStartFrame	OrigNumFrames
85.889570552147	85.889570552147	6	33	mm	85.889570552147	124	       141
Frame#	Time	Sacral			L.Shoulder			Chest			R.Shoulder			Neck			R.ASIS			L.ASIS			R.Thigh.Superior			R.Thigh.Lateral			R.Thigh.Inferior			R.Patella			L.Thigh.Superior			L.Thigh.Lateral			L.Thigh.Inferior			L.Patella			L.Shank.Superior			L.Shank.Lateral			L.Shank.Inferior			R.Shank.Superior			R.Shank.Lateral			R.Shank.Inferior			R.Heel			R.Midfoot.Superior			R.Midfoot.Lateral			R.Toe			L.Heel			L.Midfoot.Lateral			L.Midfoot.Superior			L.Toe			L.Elbow			L.Wrist			R.Elbow			R.Wrist			
		X1	Y1	Z1	X2	Y2	Z2	X3	Y3	Z3	X4	Y4	Z4	X5	Y5	Z5	X6	Y6	Z6	X7	Y7	Z7	X8	Y8	Z8	X9	Y9	Z9	X10	Y10	Z10	X11	Y11	Z11	X12	Y12	Z12	X13	Y13	Z13	X14	Y14	Z14	X15	Y15	Z15	X16	Y16	Z16	X17	Y17	Z17	X18	Y18	Z18	X19	Y19	Z19	X20	Y20	Z20	X21	Y21	Z21	X22	Y22	Z22	X23	Y23	Z23	X24	Y24	Z24	X25	Y25	Z25	X26	Y26	Z26	X27	Y27	Z27	X28	Y28	Z28	X29	Y29	Z29	X30	Y30	Z30	X31	Y31	Z31	X32	Y32	Z32	X33	Y33	Z33	

124	10.072071428571	782.510421135036	986.655633189597	451.869974068031	977.020374957741	1421.181623608393	290.939406090595	1064.068267639527	1346.911085948813	459.707694390780	964.054359191816	1420.504622584176	624.721580595838	962.760478929040	1477.829794024682	446.970505057192	1000.033822996437	929.713818439706	590.281508237323	1009.406385417645	944.444812957812	314.482972721386	1078.435484131025	754.951028271097	569.099220409329	1020.682803633349	631.599229905888	630.314266239772	1115.468685785680	598.033868452932	558.842357451992	1138.242709449016	514.967867620298	568.618631441227	1006.773459721825	715.581215772083	344.660283235109	890.707689229251	623.053926457819	276.120253579170	942.509833978635	527.382150411351	344.786893700548	923.101912788909	457.411423082683	353.611632650691	881.310189248938	394.079346216518	343.103106727090	770.716708351437	303.305874619376	285.867194134748	787.371415379674	183.900598354086	358.404223972482	1129.875114246079	423.099213567657	578.410322222220	1078.178715615422	307.612990926804	638.369769292867	1149.272352545543	224.333758203672	586.134440538913	1056.578015613002	43.267835666584	555.212970271777	1219.892261165985	111.340940983137	595.198019023068	1139.943588128407	39.890820141656	628.585806550244	1343.457605776324	70.729020773084	621.620400722539	631.706563444875	44.157722974935	390.980203004679	707.894633529413	37.686326364940	313.304425618566	793.140307021288	95.603466632975	342.527495879814	919.935843491553	39.373545844340	315.760049828704	1073.590511414134	1111.766623171692	133.783106665243	1314.957878530784	1134.893069341252	203.360238792977	790.722652793027	1125.086972107343	728.686392337547	725.917056227001	871.029486705338	729.833882832047	
125	10.083714285714	785.193290852384	985.345607358859	455.075216189393	977.822597821338	1419.741136392773	292.835466403547	1065.703150320159	1346.367409135544	461.673516555992	965.682257042032	1419.949632770000	626.741677230044	963.956312163711	1476.897254354294	448.880515333985	1003.527757919140	928.621188049646	592.812601016171	1011.778208268269	943.204858059907	317.230834087935	1081.614359703378	752.716502211671	571.185128340034	1022.176600159990	629.784338817193	630.890443528406	1116.804494024959	595.783823432351	559.563247066851	1138.224541102849	511.537132006216	568.499343989241	1009.211536001139	714.334285165342	346.206148179589	892.670546559584	621.777722030229	278.589990216165	945.651561548133	525.660781961246	346.207465548026	926.336981550723	454.524415095698	354.468930826762	881.924811202448	392.123140688605	344.249015920369	768.571894337314	304.659882995571	287.005600217256	782.598729270566	184.258134218138	358.310229784704	1128.286613069646	419.518732654251	577.906268426088	1074.503351237601	304.794540517170	637.637460661567	1143.247555135989	220.256619278723	584.502452484389	1045.453345838016	42.334575418985	554.012298360607	1210.889099173781	106.449058373992	592.422795705721	1129.030804787112	37.926860603867	627.275268149563	1333.790936181399	62.653978040273	618.675351802804	623.936661577185	47.478527204019	390.656856909410	700.046558114873	39.279069559311	313.160614020933	786.226367463169	96.048845187618	342.040903978706	911.927584146058	39.036075426462	315.602721462664	1073.533970928889	1109.437724206435	136.066211353526	1314.210382689972	1137.792961986690	205.435205646555	790.798556251390	1125.911590082558	730.437687190677	724.842061321755	871.938073179609	731.246590377274	
126	10.095357142857	787.684119456088	984.560874071814	458.281120654177	978.839579103199	1418.712853966029	294.772622126509	1067.460067437404	1346.147902424717	463.684681301487	967.488698275825	1419.752555854628	628.830390635052	965.398736121557	1476.406510305995	450.875172197170	1006.796179565145	928.064369983729	595.384439323275	1013.917436582054	942.320788478234	319.987611884012	1084.402764524114	750.994140195390	573.158740500509	1023.741208957507	628.749965481901	631.860889629697	1117.769512172120	594.108391937276	560.209849836775	1138.139554792718	508.838835707987	568.650652983416	1011.957897552768	713.557151159692	347.899446972477	895.332569079927	620.624657816649	281.166600925682	949.863422203706	524.198119075680	347.703570666632	930.791237062149	451.781515728319	355.234202953992	883.549672576427	390.352379119686	345.347497949714	767.316489619709	306.569637184249	288.182708270172	778.514169135566	185.168978049447	358.134924234481	1126.659142628015	416.710085812721	577.730590416168	1071.079587648537	302.736636976563	637.434791045827	1137.444097073109	216.999919415498	583.291296658527	1034.879539401394	41.773210168688	553.300334306582	1202.180485776834	102.633776753809	590.239264676681	1118.685929278460	36.619672129560	626.443873062217	1324.517861923124	56.087686086654	616.248415571819	616.524301264883	52.119952916958	390.318137198000	692.381994536222	41.655348544652	313.004737024328	779.768988832467	96.740287321571	341.453629751125	903.857948610534	38.671952539163	315.475916928119	1072.717694623576	1106.929807827040	138.697886911610	1313.032153528830	1139.169862339902	207.373606768890	792.133622925659	1126.165248901962	732.204063637126	725.578775428198	872.121783085864	732.871038005570	
127	10.107000000000	789.944098019712	984.349814040664	461.461147284083	980.078472948390	1418.179758342988	296.739090625649	1069.319167276592	1346.279472648992	465.707427983010	969.488343291525	1419.954118744480	630.955222118991	967.091499254158	1476.396310474353	452.928248930832	1009.763910966912	928.084489998109	597.993652073586	1015.764562076608	941.852856081666	322.713306104013	1086.712595714888	749.890503078680	575.028264427264	1025.283384305166	628.495105714001	633.245071361454	1118.324023981311	593.026528437460	560.891719118378	1137.853698195942	506.889624626705	569.174448617687	1015.020771569005	713.306822594746	349.785162153879	898.814727347843	619.607143209771	283.807496690083	955.261757984352	523.050885906034	349.268341153138	936.555854931294	449.259286674493	355.896508950331	886.333483152434	388.814560076867	346.367596908368	767.127616037629	309.100185692103	289.377582969738	775.271063172440	186.725793410610	357.890912035433	1124.917381080980	414.699476140479	577.942648134573	1067.838717912992	301.449945494557	637.768633375792	1131.872273791705	214.612882358166	582.556596615731	1025.054503105860	41.536894881562	553.020761362224	1193.866415089889	99.944298353922	588.741972935823	1109.070137287477	35.899457994876	626.056722135138	1315.748570555830	51.177000090030	614.468178934970	609.633425852475	58.307435696284	389.974322285523	685.003362531259	45.009191373199	312.843664826579	773.876415488134	97.742421415676	340.783658809339	895.718231792719	38.242535418694	315.397754453500	1071.099996659987	1104.360916573309	141.697984968707	1311.458201551813	1138.996444323164	209.183020186213	794.755512702016	1125.885426693302	734.017642605465	728.220492799734	871.614840854289	734.658080339768	
128	10.118642857143	791.953307482477	984.709873342271	464.612467991363	981.519782166217	1418.179411852523	298.720584943443	1071.246564702866	1346.758421476223	467.705552231460	971.678502930151	1420.566359801506	633.077802676700	969.004733475622	1476.862417084689	455.001982644691	1012.390361914797	928.669987876638	600.642704883249	1017.277687979039	941.829395595128	325.379033846321	1088.519544473475	749.432941817438	576.834665073084	1026.643122155375	628.912571689565	635.001363756743	1118.435216586446	592.464136166928	561.730274305364	1137.210144225101	505.605078523293	570.108866573262	1018.401486905882	713.607117790012	351.888532685003	903.210005560693	618.730164876778	286.457520890644	961.916904466794	522.262475342745	350.878523375085	943.672779682245	447.027400937131	356.444156893709	890.391561232158	387.548166527400	347.279053928009	768.158905482742	312.289019551281	290.565342799021	773.012582248633	188.998247400324	357.592948940428	1122.941861907126	413.413065571780	578.534621101785	1064.629185184360	300.851985324221	638.568782548422	1126.448136788952	213.034900541195	582.279931384293	1015.992955165794	41.555912849340	553.084929159875	1185.928988006614	98.290391005023	587.922517811805	1100.174113182313	35.646116582655	626.037533189668	1307.463666952082	47.840909304351	613.358378649270	603.452755655080	66.213362137461	389.631220155963	678.043078762988	49.519808203464	312.680311549384	768.656034791844	99.126268153295	340.059931350033	887.520951857013	37.701512648441	315.382213229522	1068.658976500397	1101.851043563380	145.067959722632	1309.501136180229	1137.248838818909	210.874808999382	798.638709956724	1125.143388225774	735.919141343072	732.851813532548	870.479485320939	736.556014481186	
129	10.130285714286	793.708190363715	985.586879106126	467.754692295213	983.110627409100	1418.695768430892	300.700949079852	1073.197534782051	1347.550298990650	469.642296621972	974.039557665562	1421.566630110576	635.160026613287	971.077078686531	1477.757085740415	457.053436020416	1014.671504170293	929.758945662855	603.328337792321	1018.435615112705	942.242352977237	327.966768421486	1089.841313326200	749.545210386118	578.652046686084	1027.598184260919	629.809380516685	637.040831290050	1118.055473963427	592.275048548552	562.826035030721	1136.046732203262	504.833088517529	571.411366784665	1022.093388168249	714.448800365321	354.206732278696	908.566922724796	617.997011510829	289.055206620606	969.835905407993	521.865067040902	352.499837862682	952.124502840345	445.148956158130	356.874430139345	895.788833893370	386.585083656410	348.062018867924	770.525419178976	316.142948186405	291.721110970522	771.860382493507	192.026097152046	357.256548551602	1120.592878373323	412.709000347363	579.438400226894	1061.264965011156	300.794517568795	639.709358943344	1121.040777896675	212.128525082339	582.382201782088	1007.585410900190	41.751510685516	553.389761678022	1178.280862598666	97.485635882811	587.686760477867	1091.877452283604	35.719952354940	626.287179759203	1299.565070754166	45.835639616222	612.855101661060	598.187774671245	75.931787367525	389.288124432752	671.663522671684	55.330744023436	312.512416452728	764.211555958350	100.968124512112	339.320099577169	879.311892785135	37.002261913836	315.435788478252	1065.399556918091	1099.506129516439	148.787593710553	1307.147071184213	1133.903855052145	212.462620001661	803.705030572798	1124.032147708607	737.954456671956	739.538525583706	868.801527198149	738.518821102581	
